<svg width="86" height="61" viewBox="0 0 86 61" fill="none" xmlns="http://www.w3.org/2000/svg">
<path d="M86 53.375V7.625C86 3.40583 82.6126 0 78.4162 0H7.58377C3.38742 0 0 3.40583 0 7.625V53.375C0 57.5942 3.38742 61 7.58377 61H78.4162C82.6126 61 86 57.5942 86 53.375ZM79.3768 7.06583C81.0453 8.74333 80.1352 10.4717 79.2252 11.3358L58.6984 30.2458L78.4162 50.8842C79.0229 51.5958 79.4274 52.7142 78.7196 53.4767C78.0623 54.29 76.5456 54.2392 75.8883 53.7308L53.7942 34.77L42.9747 44.6825L32.2058 34.77L10.1117 53.7308C9.45444 54.2392 7.93768 54.29 7.28042 53.4767C6.5726 52.7142 6.97707 51.5958 7.58377 50.8842L27.3016 30.2458L6.77484 11.3358C5.86479 10.4717 4.95473 8.74333 6.62316 7.06583C8.29159 5.38833 10.0106 6.20167 11.4262 7.42167L42.9747 33.0417L74.5738 7.42167C75.9894 6.20167 77.7084 5.38833 79.3768 7.06583Z" fill="white"/>
</svg>
