<svg width="76" height="76" viewBox="0 0 76 76" fill="none" xmlns="http://www.w3.org/2000/svg">
<path d="M74.6038 59.5327L57.2618 43.765C56.4421 43.02 55.3648 42.6226 54.2576 42.6568C53.1504 42.6911 52.0998 43.1542 51.3276 43.9485L41.1186 54.4475C38.6613 53.9782 33.7211 52.4381 28.6358 47.3657C23.5505 42.2762 22.0104 37.3232 21.5539 34.8829L32.0445 24.6698C32.8397 23.8982 33.3036 22.8474 33.3378 21.7398C33.372 20.6323 32.974 19.5549 32.2279 18.7356L16.4644 1.39798C15.718 0.576137 14.6806 0.0776282 13.5726 0.00832661C12.4645 -0.060975 11.3731 0.304391 10.5301 1.02683L1.27252 8.96612C0.53495 9.70636 0.0947156 10.6916 0.0353323 11.7348C-0.0286603 12.8014 -1.24879 38.0655 18.3415 57.6641C35.4318 74.75 56.8395 76 62.7353 76C63.5971 76 64.1261 75.9744 64.2669 75.9659C65.31 75.9075 66.2947 75.4653 67.0314 74.7244L74.9665 65.4626C75.6918 64.6223 76.0598 63.5318 75.9921 62.4239C75.9243 61.3159 75.4261 60.2784 74.6038 59.5327Z" fill="white"/>
</svg>
